<mxfile host="app.diagrams.net" modified="2023-07-28T06:29:29.478Z" agent="Mozilla/5.0 (Windows NT 10.0; Win64; x64) AppleWebKit/537.36 (KHTML, like Gecko) Chrome/115.0.0.0 Safari/537.36" etag="nIrX5zYSdl8XzCPoNlPm" version="21.6.5" type="device">
  <diagram name="Страница 1" id="cPOvZNRW5q5iyQ3X-T9L">
    <mxGraphModel dx="2206" dy="1351" grid="1" gridSize="10" guides="1" tooltips="1" connect="1" arrows="1" fold="1" page="1" pageScale="1" pageWidth="1169" pageHeight="827" background="#E6E6E6" math="0" shadow="0">
      <root>
        <mxCell id="0" />
        <mxCell id="1" parent="0" />
        <mxCell id="3XoSpjxrRGUEi4SoyaMn-10" value="" style="rounded=0;whiteSpace=wrap;html=1;strokeWidth=0;fillColor=none;" vertex="1" parent="1">
          <mxGeometry x="8" y="299" width="1160" height="1050" as="geometry" />
        </mxCell>
        <mxCell id="aQjmBxtVL5Uxb0b1eybm-77" value="" style="rounded=1;whiteSpace=wrap;html=1;shadow=0;arcSize=7;fillStyle=hatch;fillColor=#FA6800;perimeterSpacing=0;gradientColor=none;imageAspect=1;glass=0;strokeWidth=2;" parent="1" vertex="1">
          <mxGeometry x="193" y="734" width="240" height="180" as="geometry" />
        </mxCell>
        <mxCell id="aQjmBxtVL5Uxb0b1eybm-71" value="" style="rounded=1;whiteSpace=wrap;html=1;shadow=0;arcSize=7;strokeWidth=2;dashed=1;fillColor=#E6E6E6;" parent="1" vertex="1">
          <mxGeometry x="603" y="406" width="420" height="180" as="geometry" />
        </mxCell>
        <mxCell id="aQjmBxtVL5Uxb0b1eybm-67" value="" style="rounded=1;whiteSpace=wrap;html=1;shadow=0;strokeWidth=3;fillOpacity=55;fillColor=#008A00;fontColor=#ffffff;strokeColor=#000000;glass=1;" parent="1" vertex="1">
          <mxGeometry x="623" y="436" width="210" height="120" as="geometry" />
        </mxCell>
        <mxCell id="aQjmBxtVL5Uxb0b1eybm-89" value="" style="rounded=1;whiteSpace=wrap;html=1;fillColor=#E6E6E6;fillOpacity=30;strokeWidth=2;" parent="1" vertex="1">
          <mxGeometry x="633" y="476" width="190" height="40" as="geometry" />
        </mxCell>
        <mxCell id="aQjmBxtVL5Uxb0b1eybm-10" value="MongoDB" style="text;strokeColor=none;align=center;fillColor=none;html=1;verticalAlign=middle;whiteSpace=wrap;rounded=0;fontSize=16;fontFamily=Tahoma;fontStyle=1" parent="1" vertex="1">
          <mxGeometry x="933" y="533" width="60" height="30" as="geometry" />
        </mxCell>
        <mxCell id="aQjmBxtVL5Uxb0b1eybm-16" value="" style="endArrow=block;startArrow=block;html=1;entryX=0;entryY=0.5;entryDx=0;entryDy=0;entryPerimeter=0;exitX=1;exitY=0.5;exitDx=0;exitDy=0;dashed=1;dashPattern=1 2;strokeWidth=3;rounded=0;startFill=1;endFill=1;" parent="1" edge="1">
          <mxGeometry width="50" height="50" relative="1" as="geometry">
            <mxPoint x="833" y="494.9999999999999" as="sourcePoint" />
            <mxPoint x="932.9999999999998" y="494.9999999999999" as="targetPoint" />
          </mxGeometry>
        </mxCell>
        <mxCell id="aQjmBxtVL5Uxb0b1eybm-20" value="" style="shape=cylinder3;whiteSpace=wrap;html=1;boundedLbl=1;backgroundOutline=1;size=15;fillColor=#008a00;fontColor=#ffffff;strokeColor=#000000;strokeWidth=3;shadow=1;" parent="1" vertex="1">
          <mxGeometry x="933" y="451" width="60" height="80" as="geometry" />
        </mxCell>
        <mxCell id="aQjmBxtVL5Uxb0b1eybm-73" value="" style="rounded=1;whiteSpace=wrap;html=1;shadow=0;arcSize=7;strokeWidth=2;dashed=1;fillColor=#E6E6E6;" parent="1" vertex="1">
          <mxGeometry x="603" y="626" width="420" height="180" as="geometry" />
        </mxCell>
        <mxCell id="aQjmBxtVL5Uxb0b1eybm-74" value="" style="rounded=1;whiteSpace=wrap;html=1;shadow=0;arcSize=7;dashed=1;strokeWidth=2;fillColor=#E6E6E6;" parent="1" vertex="1">
          <mxGeometry x="603" y="846" width="420" height="180" as="geometry" />
        </mxCell>
        <mxCell id="aQjmBxtVL5Uxb0b1eybm-75" value="" style="rounded=1;whiteSpace=wrap;html=1;shadow=0;arcSize=7;dashed=1;strokeWidth=2;perimeterSpacing=0;fillColor=#E6E6E6;" parent="1" vertex="1">
          <mxGeometry x="603" y="1066" width="420" height="180" as="geometry" />
        </mxCell>
        <mxCell id="aQjmBxtVL5Uxb0b1eybm-68" value="" style="rounded=1;whiteSpace=wrap;html=1;shadow=0;strokeWidth=3;fillOpacity=55;fillColor=#1BA1E2;glass=1;" parent="1" vertex="1">
          <mxGeometry x="623" y="656" width="210" height="120" as="geometry" />
        </mxCell>
        <mxCell id="aQjmBxtVL5Uxb0b1eybm-86" value="" style="rounded=1;whiteSpace=wrap;html=1;fillColor=#E6E6E6;strokeWidth=2;" parent="1" vertex="1">
          <mxGeometry x="233" y="805" width="160" height="40" as="geometry" />
        </mxCell>
        <mxCell id="aQjmBxtVL5Uxb0b1eybm-17" value="" style="endArrow=block;startArrow=block;html=1;entryX=0;entryY=0.5;entryDx=0;entryDy=0;entryPerimeter=0;anchorPointDirection=1;fixDash=0;jumpStyle=none;shadow=0;rounded=0;strokeColor=default;dashed=1;dashPattern=1 2;strokeWidth=3;startFill=1;endFill=1;" parent="1" edge="1">
          <mxGeometry width="50" height="50" relative="1" as="geometry">
            <mxPoint x="833" y="715" as="sourcePoint" />
            <mxPoint x="932.9999999999998" y="715" as="targetPoint" />
          </mxGeometry>
        </mxCell>
        <mxCell id="aQjmBxtVL5Uxb0b1eybm-21" value="" style="shape=cylinder3;whiteSpace=wrap;html=1;boundedLbl=1;backgroundOutline=1;size=15;direction=east;connectable=1;allowArrows=1;perimeter=rectanglePerimeter;fixDash=0;container=0;resizable=1;resizeWidth=0;resizeHeight=0;comic=0;enumerate=0;treeMoving=0;treeFolding=0;deletable=1;cloneable=1;rotatable=1;fixedWidth=0;autosize=0;movableLabel=0;fillColor=#1BA1E2;fontColor=#ffffff;strokeColor=#000000;strokeWidth=3;shadow=1;" parent="1" vertex="1">
          <mxGeometry x="933" y="672" width="60" height="80" as="geometry" />
        </mxCell>
        <mxCell id="aQjmBxtVL5Uxb0b1eybm-69" value="" style="rounded=1;whiteSpace=wrap;html=1;shadow=0;strokeWidth=3;fillOpacity=55;fillColor=#6666FF;glass=1;" parent="1" vertex="1">
          <mxGeometry x="623" y="876" width="210" height="120" as="geometry" />
        </mxCell>
        <mxCell id="aQjmBxtVL5Uxb0b1eybm-22" value="" style="shape=datastore;whiteSpace=wrap;html=1;fillColor=#6666FF;fontColor=#ffffff;strokeColor=#000000;strokeWidth=3;shadow=1;" parent="1" vertex="1">
          <mxGeometry x="933" y="892" width="60" height="80" as="geometry" />
        </mxCell>
        <mxCell id="aQjmBxtVL5Uxb0b1eybm-70" value="" style="rounded=1;whiteSpace=wrap;html=1;shadow=0;strokeWidth=3;fillOpacity=55;fillColor=#FA6800;glass=1;" parent="1" vertex="1">
          <mxGeometry x="623" y="1096" width="210" height="120" as="geometry" />
        </mxCell>
        <mxCell id="aQjmBxtVL5Uxb0b1eybm-19" value="" style="endArrow=block;startArrow=block;html=1;rounded=0;exitX=1.002;exitY=0.366;exitDx=0;exitDy=0;exitPerimeter=0;strokeWidth=3;dashed=1;dashPattern=1 2;startFill=1;endFill=1;" parent="1" edge="1">
          <mxGeometry width="50" height="50" relative="1" as="geometry">
            <mxPoint x="833.4199999999998" y="1156" as="sourcePoint" />
            <mxPoint x="919" y="1156" as="targetPoint" />
          </mxGeometry>
        </mxCell>
        <mxCell id="aQjmBxtVL5Uxb0b1eybm-27" value="" style="html=1;whiteSpace=wrap;shape=isoCube2;backgroundOutline=1;isoAngle=15;fillColor=#fa6800;fontColor=#000000;strokeColor=#000000;strokeWidth=3;shadow=1;" parent="1" vertex="1">
          <mxGeometry x="919" y="1102" width="85" height="95" as="geometry" />
        </mxCell>
        <mxCell id="aQjmBxtVL5Uxb0b1eybm-82" value="MongoDB" style="text;strokeColor=none;align=center;fillColor=none;html=1;verticalAlign=middle;whiteSpace=wrap;rounded=0;fontSize=16;fontFamily=Tahoma;fontStyle=1" parent="1" vertex="1">
          <mxGeometry x="933" y="756" width="60" height="30" as="geometry" />
        </mxCell>
        <mxCell id="aQjmBxtVL5Uxb0b1eybm-83" value="PostgreSQL" style="text;strokeColor=none;align=center;fillColor=none;html=1;verticalAlign=middle;whiteSpace=wrap;rounded=0;fontSize=16;fontFamily=Tahoma;fontStyle=1" parent="1" vertex="1">
          <mxGeometry x="933" y="975" width="60" height="30" as="geometry" />
        </mxCell>
        <mxCell id="aQjmBxtVL5Uxb0b1eybm-84" value="RabbitMQ" style="text;strokeColor=none;align=center;fillColor=none;html=1;verticalAlign=middle;whiteSpace=wrap;rounded=0;fontSize=16;fontFamily=Tahoma;fontStyle=1" parent="1" vertex="1">
          <mxGeometry x="928" y="1201" width="60" height="30" as="geometry" />
        </mxCell>
        <mxCell id="aQjmBxtVL5Uxb0b1eybm-85" value="API GATEWAY" style="text;strokeColor=none;align=center;fillColor=none;html=1;verticalAlign=middle;whiteSpace=wrap;rounded=0;fontSize=20;fontFamily=Tahoma;fontStyle=1" parent="1" vertex="1">
          <mxGeometry x="228" y="809" width="170" height="30" as="geometry" />
        </mxCell>
        <mxCell id="aQjmBxtVL5Uxb0b1eybm-90" value="Flies" style="text;strokeColor=none;align=center;fillColor=none;html=1;verticalAlign=middle;whiteSpace=wrap;rounded=0;fontSize=16;fontFamily=Tahoma;fontStyle=1" parent="1" vertex="1">
          <mxGeometry x="693" y="480" width="60" height="30" as="geometry" />
        </mxCell>
        <mxCell id="aQjmBxtVL5Uxb0b1eybm-94" value="" style="rounded=1;whiteSpace=wrap;html=1;fillColor=#E6E6E6;fillOpacity=30;strokeWidth=2;" parent="1" vertex="1">
          <mxGeometry x="633" y="697" width="190" height="40" as="geometry" />
        </mxCell>
        <mxCell id="aQjmBxtVL5Uxb0b1eybm-95" value="User" style="text;strokeColor=none;align=center;fillColor=none;html=1;verticalAlign=middle;whiteSpace=wrap;rounded=0;fontSize=16;fontFamily=Tahoma;fontStyle=1" parent="1" vertex="1">
          <mxGeometry x="693" y="701" width="60" height="30" as="geometry" />
        </mxCell>
        <mxCell id="aQjmBxtVL5Uxb0b1eybm-96" value="" style="rounded=1;whiteSpace=wrap;html=1;fillColor=#E6E6E6;fillOpacity=30;strokeWidth=2;" parent="1" vertex="1">
          <mxGeometry x="633" y="891" width="190" height="40" as="geometry" />
        </mxCell>
        <mxCell id="aQjmBxtVL5Uxb0b1eybm-97" value="Blog" style="text;strokeColor=none;align=center;fillColor=none;html=1;verticalAlign=middle;whiteSpace=wrap;rounded=0;fontSize=16;fontFamily=Tahoma;fontStyle=1" parent="1" vertex="1">
          <mxGeometry x="693" y="894" width="60" height="30" as="geometry" />
        </mxCell>
        <mxCell id="aQjmBxtVL5Uxb0b1eybm-98" value="" style="rounded=1;whiteSpace=wrap;html=1;fillColor=#E6E6E6;fillOpacity=30;strokeWidth=2;" parent="1" vertex="1">
          <mxGeometry x="633" y="941" width="190" height="40" as="geometry" />
        </mxCell>
        <mxCell id="aQjmBxtVL5Uxb0b1eybm-99" value="Comments &amp;amp; likes" style="text;strokeColor=none;align=center;fillColor=none;html=1;verticalAlign=middle;whiteSpace=wrap;rounded=0;fontSize=16;fontFamily=Tahoma;fontStyle=1" parent="1" vertex="1">
          <mxGeometry x="643" y="945" width="180" height="30" as="geometry" />
        </mxCell>
        <mxCell id="aQjmBxtVL5Uxb0b1eybm-104" value="" style="rounded=1;whiteSpace=wrap;html=1;fillColor=#E6E6E6;fillOpacity=30;strokeWidth=2;" parent="1" vertex="1">
          <mxGeometry x="633" y="1136" width="190" height="40" as="geometry" />
        </mxCell>
        <mxCell id="aQjmBxtVL5Uxb0b1eybm-103" value="Notify" style="text;strokeColor=none;align=center;fillColor=none;html=1;verticalAlign=middle;whiteSpace=wrap;rounded=0;fontSize=16;fontFamily=Tahoma;fontStyle=1" parent="1" vertex="1">
          <mxGeometry x="687" y="1139" width="60" height="30" as="geometry" />
        </mxCell>
        <mxCell id="aQjmBxtVL5Uxb0b1eybm-108" value="" style="endArrow=block;startArrow=block;html=1;anchorPointDirection=1;fixDash=0;jumpStyle=none;shadow=0;rounded=0;strokeColor=default;dashed=1;dashPattern=1 2;strokeWidth=3;startFill=1;endFill=1;entryX=-0.003;entryY=0.559;entryDx=0;entryDy=0;entryPerimeter=0;exitX=1.004;exitY=0.2;exitDx=0;exitDy=0;exitPerimeter=0;" parent="1" target="aQjmBxtVL5Uxb0b1eybm-71" edge="1" source="aQjmBxtVL5Uxb0b1eybm-77">
          <mxGeometry width="50" height="50" relative="1" as="geometry">
            <mxPoint x="433" y="770" as="sourcePoint" />
            <mxPoint x="553" y="606" as="targetPoint" />
            <Array as="points">
              <mxPoint x="513" y="770" />
              <mxPoint x="513" y="506" />
            </Array>
          </mxGeometry>
        </mxCell>
        <mxCell id="aQjmBxtVL5Uxb0b1eybm-110" value="" style="endArrow=block;startArrow=block;html=1;anchorPointDirection=1;fixDash=0;jumpStyle=none;shadow=0;rounded=0;strokeColor=default;dashed=1;dashPattern=1 2;strokeWidth=3;startFill=1;endFill=1;entryX=0;entryY=0.5;entryDx=0;entryDy=0;exitX=1.001;exitY=0.402;exitDx=0;exitDy=0;exitPerimeter=0;" parent="1" source="aQjmBxtVL5Uxb0b1eybm-77" edge="1" target="aQjmBxtVL5Uxb0b1eybm-73">
          <mxGeometry width="50" height="50" relative="1" as="geometry">
            <mxPoint x="483" y="836" as="sourcePoint" />
            <mxPoint x="603" y="736" as="targetPoint" />
            <Array as="points">
              <mxPoint x="553" y="806" />
              <mxPoint x="553" y="716" />
            </Array>
          </mxGeometry>
        </mxCell>
        <mxCell id="aQjmBxtVL5Uxb0b1eybm-112" value="" style="endArrow=block;startArrow=block;html=1;anchorPointDirection=1;fixDash=0;jumpStyle=none;shadow=0;rounded=0;strokeColor=default;dashed=1;dashPattern=1 2;strokeWidth=3;startFill=1;endFill=1;exitX=1.004;exitY=0.598;exitDx=0;exitDy=0;exitPerimeter=0;entryX=-0.005;entryY=0.495;entryDx=0;entryDy=0;entryPerimeter=0;" parent="1" edge="1" source="aQjmBxtVL5Uxb0b1eybm-77">
          <mxGeometry width="50" height="50" relative="1" as="geometry">
            <mxPoint x="431.79999999999995" y="841.46" as="sourcePoint" />
            <mxPoint x="600.9000000000001" y="935.1000000000001" as="targetPoint" />
            <Array as="points">
              <mxPoint x="553" y="841" />
              <mxPoint x="553" y="936" />
            </Array>
          </mxGeometry>
        </mxCell>
        <mxCell id="aQjmBxtVL5Uxb0b1eybm-113" value="" style="endArrow=block;startArrow=block;html=1;anchorPointDirection=1;fixDash=0;jumpStyle=none;shadow=0;rounded=0;strokeColor=default;dashed=1;dashPattern=1 2;strokeWidth=3;startFill=1;endFill=1;entryX=0;entryY=0.5;entryDx=0;entryDy=0;exitX=1.008;exitY=0.797;exitDx=0;exitDy=0;exitPerimeter=0;" parent="1" edge="1" target="aQjmBxtVL5Uxb0b1eybm-75" source="aQjmBxtVL5Uxb0b1eybm-77">
          <mxGeometry width="50" height="50" relative="1" as="geometry">
            <mxPoint x="463" y="966" as="sourcePoint" />
            <mxPoint x="602" y="1178" as="targetPoint" />
            <Array as="points">
              <mxPoint x="513" y="876" />
              <mxPoint x="513" y="1156" />
            </Array>
          </mxGeometry>
        </mxCell>
        <mxCell id="aQjmBxtVL5Uxb0b1eybm-115" value="" style="endArrow=none;startArrow=block;html=1;entryX=1;entryY=0.5;entryDx=0;entryDy=0;dashed=1;dashPattern=1 2;strokeWidth=3;startFill=1;endFill=0;curved=1;strokeColor=#008A00;exitX=1;exitY=0.346;exitDx=0;exitDy=0;exitPerimeter=0;" parent="1" source="aQjmBxtVL5Uxb0b1eybm-71" target="aQjmBxtVL5Uxb0b1eybm-74" edge="1">
          <mxGeometry width="50" height="50" relative="1" as="geometry">
            <mxPoint x="1023" y="526" as="sourcePoint" />
            <mxPoint x="1022.9999999999998" y="957.6199999999999" as="targetPoint" />
            <Array as="points">
              <mxPoint x="1133" y="566" />
              <mxPoint x="1123" y="846" />
            </Array>
          </mxGeometry>
        </mxCell>
        <mxCell id="aQjmBxtVL5Uxb0b1eybm-117" value="" style="endArrow=none;startArrow=block;html=1;entryX=1.002;entryY=0.331;entryDx=0;entryDy=0;exitX=1.001;exitY=0.635;exitDx=0;exitDy=0;dashed=1;dashPattern=1 2;strokeWidth=3;startFill=1;endFill=0;curved=1;exitPerimeter=0;strokeColor=#008A00;entryPerimeter=0;" parent="1" source="aQjmBxtVL5Uxb0b1eybm-71" target="aQjmBxtVL5Uxb0b1eybm-73" edge="1">
          <mxGeometry width="50" height="50" relative="1" as="geometry">
            <mxPoint x="1023.8399999999995" y="557.76" as="sourcePoint" />
            <mxPoint x="1022.9999999999998" y="1000.9999999999999" as="targetPoint" />
            <Array as="points">
              <mxPoint x="1103" y="606" />
            </Array>
          </mxGeometry>
        </mxCell>
        <mxCell id="aQjmBxtVL5Uxb0b1eybm-118" value="" style="endArrow=block;startArrow=none;html=1;exitX=0.998;exitY=0.659;exitDx=0;exitDy=0;dashed=1;dashPattern=1 2;strokeWidth=3;startFill=0;endFill=1;curved=1;exitPerimeter=0;strokeColor=#6666FF;entryX=1.001;entryY=0.379;entryDx=0;entryDy=0;entryPerimeter=0;" parent="1" target="aQjmBxtVL5Uxb0b1eybm-75" edge="1" source="aQjmBxtVL5Uxb0b1eybm-74">
          <mxGeometry width="50" height="50" relative="1" as="geometry">
            <mxPoint x="1023" y="961" as="sourcePoint" />
            <mxPoint x="1033" y="1166" as="targetPoint" />
            <Array as="points">
              <mxPoint x="1103" y="1036" />
            </Array>
          </mxGeometry>
        </mxCell>
        <mxCell id="aQjmBxtVL5Uxb0b1eybm-120" value="" style="endArrow=block;startArrow=none;html=1;entryX=1;entryY=0.691;entryDx=0;entryDy=0;exitX=1;exitY=0.485;exitDx=0;exitDy=0;dashed=1;dashPattern=1 2;strokeWidth=3;startFill=0;endFill=1;curved=1;strokeColor=#1BA1E2;entryPerimeter=0;exitPerimeter=0;" parent="1" source="aQjmBxtVL5Uxb0b1eybm-73" target="aQjmBxtVL5Uxb0b1eybm-75" edge="1">
          <mxGeometry width="50" height="50" relative="1" as="geometry">
            <mxPoint x="1023" y="735" as="sourcePoint" />
            <mxPoint x="1023" y="945" as="targetPoint" />
            <Array as="points">
              <mxPoint x="1123" y="796" />
              <mxPoint x="1133" y="1086" />
            </Array>
          </mxGeometry>
        </mxCell>
        <mxCell id="aQjmBxtVL5Uxb0b1eybm-121" value="" style="endArrow=block;startArrow=none;html=1;entryX=1.007;entryY=0.3;entryDx=0;entryDy=0;exitX=1;exitY=0.723;exitDx=0;exitDy=0;dashed=1;dashPattern=1 2;strokeWidth=3;startFill=0;endFill=1;curved=1;exitPerimeter=0;strokeColor=#1BA1E2;entryPerimeter=0;" parent="1" target="aQjmBxtVL5Uxb0b1eybm-74" edge="1" source="aQjmBxtVL5Uxb0b1eybm-73">
          <mxGeometry width="50" height="50" relative="1" as="geometry">
            <mxPoint x="1025" y="786" as="sourcePoint" />
            <mxPoint x="1023" y="1225" as="targetPoint" />
            <Array as="points">
              <mxPoint x="1093" y="826" />
            </Array>
          </mxGeometry>
        </mxCell>
        <mxCell id="3XoSpjxrRGUEi4SoyaMn-4" value="" style="endArrow=block;startArrow=block;html=1;entryX=0;entryY=0.5;entryDx=0;entryDy=0;entryPerimeter=0;anchorPointDirection=1;fixDash=0;jumpStyle=none;shadow=0;rounded=0;strokeColor=default;dashed=1;dashPattern=1 2;strokeWidth=3;startFill=1;endFill=1;" edge="1" parent="1">
          <mxGeometry width="50" height="50" relative="1" as="geometry">
            <mxPoint x="833" y="936.64" as="sourcePoint" />
            <mxPoint x="932.9999999999998" y="936.64" as="targetPoint" />
          </mxGeometry>
        </mxCell>
        <mxCell id="3XoSpjxrRGUEi4SoyaMn-5" value="" style="endArrow=none;html=1;rounded=0;strokeWidth=3;" edge="1" parent="1">
          <mxGeometry width="50" height="50" relative="1" as="geometry">
            <mxPoint x="154" y="986" as="sourcePoint" />
            <mxPoint x="154" y="666" as="targetPoint" />
          </mxGeometry>
        </mxCell>
        <mxCell id="3XoSpjxrRGUEi4SoyaMn-6" value="" style="endArrow=block;startArrow=none;html=1;anchorPointDirection=1;fixDash=0;jumpStyle=none;shadow=0;rounded=0;strokeColor=default;dashed=1;dashPattern=1 2;strokeWidth=3;startFill=0;endFill=1;" edge="1" parent="1">
          <mxGeometry width="50" height="50" relative="1" as="geometry">
            <mxPoint x="8" y="826" as="sourcePoint" />
            <mxPoint x="154" y="826" as="targetPoint" />
            <Array as="points" />
          </mxGeometry>
        </mxCell>
        <mxCell id="3XoSpjxrRGUEi4SoyaMn-7" value="HTTP" style="text;strokeColor=none;align=center;fillColor=none;html=1;verticalAlign=middle;whiteSpace=wrap;rounded=0;fontSize=16;fontFamily=Tahoma;fontStyle=1;labelBackgroundColor=none;fontColor=#006600;" vertex="1" parent="1">
          <mxGeometry x="48" y="800" width="47" height="20.5" as="geometry" />
        </mxCell>
        <mxCell id="3XoSpjxrRGUEi4SoyaMn-8" value="REQUESTS" style="text;strokeColor=none;align=center;fillColor=none;html=1;verticalAlign=middle;whiteSpace=wrap;rounded=0;fontSize=16;fontFamily=Tahoma;fontStyle=1;labelBackgroundColor=none;fontColor=#006600;" vertex="1" parent="1">
          <mxGeometry x="28" y="824" width="87" height="30" as="geometry" />
        </mxCell>
      </root>
    </mxGraphModel>
  </diagram>
</mxfile>
